<mxfile host="Electron" modified="2024-06-23T22:36:48.249Z" agent="Mozilla/5.0 (Windows NT 10.0; Win64; x64) AppleWebKit/537.36 (KHTML, like Gecko) draw.io/24.4.0 Chrome/120.0.6099.109 Electron/28.1.0 Safari/537.36" etag="VQDUqax3UNHTfFuqRGFu" version="24.4.0" type="device">
  <diagram name="PÃ¡gina-1" id="p8f-8EjKs7_p5lhnpXSb">
    <mxGraphModel dx="733" dy="443" grid="1" gridSize="10" guides="1" tooltips="1" connect="1" arrows="1" fold="1" page="1" pageScale="1" pageWidth="827" pageHeight="1169" math="0" shadow="0">
      <root>
        <mxCell id="0" />
        <mxCell id="1" parent="0" />
        <mxCell id="QK6k8lFPqulPiPessBOS-1" value="" style="rounded=0;whiteSpace=wrap;html=1;fillColor=none;" vertex="1" parent="1">
          <mxGeometry x="360" y="120" width="240" height="400" as="geometry" />
        </mxCell>
        <mxCell id="QK6k8lFPqulPiPessBOS-2" value="&lt;font size=&quot;1&quot; face=&quot;Lucida Console&quot;&gt;&lt;b style=&quot;font-size: 14px;&quot;&gt;Text (code)&lt;/b&gt;&lt;/font&gt;" style="rounded=0;whiteSpace=wrap;html=1;fillColor=#fff2cc;strokeColor=#000000;" vertex="1" parent="1">
          <mxGeometry x="360" y="480" width="240" height="40" as="geometry" />
        </mxCell>
        <mxCell id="QK6k8lFPqulPiPessBOS-3" value="&lt;font size=&quot;1&quot; face=&quot;Lucida Console&quot;&gt;&lt;b style=&quot;font-size: 14px;&quot;&gt;Data (initialized)&lt;/b&gt;&lt;/font&gt;" style="rounded=0;whiteSpace=wrap;html=1;fillColor=#e1d5e7;strokeColor=#000000;" vertex="1" parent="1">
          <mxGeometry x="360" y="440" width="240" height="40" as="geometry" />
        </mxCell>
        <mxCell id="QK6k8lFPqulPiPessBOS-4" value="&lt;font size=&quot;1&quot; face=&quot;Lucida Console&quot;&gt;&lt;b style=&quot;font-size: 14px;&quot;&gt;BSS (uninitialized)&lt;/b&gt;&lt;/font&gt;" style="rounded=0;whiteSpace=wrap;html=1;fillColor=#f8cecc;strokeColor=#000000;" vertex="1" parent="1">
          <mxGeometry x="360" y="400" width="240" height="40" as="geometry" />
        </mxCell>
        <mxCell id="QK6k8lFPqulPiPessBOS-5" value="&lt;font face=&quot;Lucida Console&quot;&gt;&lt;span style=&quot;font-size: 14px;&quot;&gt;&lt;b&gt;Heap&lt;/b&gt;&lt;/span&gt;&lt;/font&gt;" style="rounded=0;whiteSpace=wrap;html=1;fillColor=#dae8fc;strokeColor=#000000;" vertex="1" parent="1">
          <mxGeometry x="360" y="330" width="240" height="70" as="geometry" />
        </mxCell>
        <mxCell id="QK6k8lFPqulPiPessBOS-6" value="&lt;font size=&quot;1&quot; face=&quot;Lucida Console&quot;&gt;&lt;b style=&quot;font-size: 14px;&quot;&gt;Stack&lt;/b&gt;&lt;/font&gt;" style="rounded=0;whiteSpace=wrap;html=1;fillColor=#d5e8d4;strokeColor=#000000;" vertex="1" parent="1">
          <mxGeometry x="360" y="120" width="240" height="70" as="geometry" />
        </mxCell>
        <mxCell id="QK6k8lFPqulPiPessBOS-8" value="" style="endArrow=classic;html=1;rounded=0;exitX=0.5;exitY=1;exitDx=0;exitDy=0;strokeWidth=2;" edge="1" parent="1" source="QK6k8lFPqulPiPessBOS-6">
          <mxGeometry width="50" height="50" relative="1" as="geometry">
            <mxPoint x="460" y="280" as="sourcePoint" />
            <mxPoint x="480" y="230" as="targetPoint" />
          </mxGeometry>
        </mxCell>
        <mxCell id="QK6k8lFPqulPiPessBOS-9" value="" style="endArrow=classic;html=1;rounded=0;exitX=0.5;exitY=0;exitDx=0;exitDy=0;strokeWidth=2;" edge="1" parent="1" source="QK6k8lFPqulPiPessBOS-5">
          <mxGeometry width="50" height="50" relative="1" as="geometry">
            <mxPoint x="490" y="310" as="sourcePoint" />
            <mxPoint x="480" y="287" as="targetPoint" />
          </mxGeometry>
        </mxCell>
      </root>
    </mxGraphModel>
  </diagram>
</mxfile>
